<svg width="128" height="128" viewBox="0 0 128 128" fill="none" xmlns="http://www.w3.org/2000/svg">
  <defs>
    <linearGradient id="g" x1="24" y1="18" x2="112" y2="116" gradientUnits="userSpaceOnUse">
      <stop stop-color="#10B981"/>
      <stop offset="1" stop-color="#22C55E"/>
    </linearGradient>
    <radialGradient id="h" cx="0" cy="0" r="1" gradientUnits="userSpaceOnUse" gradientTransform="translate(44 34) rotate(60) scale(92 92)">
      <stop stop-color="white" stop-opacity="0.55"/>
      <stop offset="0.55" stop-color="white" stop-opacity="0"/>
    </radialGradient>
  </defs>
  <circle cx="64" cy="64" r="56" fill="url(#g)"/>
  <circle cx="64" cy="64" r="56" fill="url(#h)"/>
  <circle cx="64" cy="64" r="55" stroke="rgba(0,0,0,0.18)" stroke-width="2"/>
  <path
    d="M70.6 38.8c-8.9-1.8-18.2.8-23.9 6.6-4.3 4.3-5.9 10.3-4.3 15.7 1.8 6.2 7.5 9.6 16.8 11.5l4.2.8c6.2 1.2 9 2.8 9.6 5.1.7 2.7-.9 5.9-4.3 8.1-4.2 2.7-10.8 3.3-17.3 1.2"
    stroke="white"
    stroke-width="8"
    stroke-linecap="round"
  />
  <path
    d="M64 32v64"
    stroke="white"
    stroke-opacity="0.95"
    stroke-width="8"
    stroke-linecap="round"
  />
</svg>
